{
    "asset" : {
        "generator" : "Khronos glTF Blender I/O v1.7.33",
        "version" : "2.0"
    },
    "scene" : 0,
    "scenes" : [
        {
            "name" : "Scene",
            "nodes" : [
                0
            ]
        }
    ],
    "nodes" : [
        {
            "mesh" : 0,
            "name" : "Cube",
            "translation" : [
                0,
                1.1600000858306885,
                0
            ]
        }
    ],
    "meshes" : [
        {
            "name" : "Cube",
            "primitives" : [
                {
                    "attributes" : {
                        "POSITION" : 0,
                        "NORMAL" : 1,
                        "TEXCOORD_0" : 2
                    },
                    "indices" : 3
                }
            ]
        }
    ],
    "accessors" : [
        {
            "bufferView" : 0,
            "componentType" : 5126,
            "count" : 16904,
            "max" : [
                0.7904487252235413,
                0.9089680910110474,
                2.347529649734497
            ],
            "min" : [
                -0.7904487252235413,
                -1.1566665172576904,
                -2.6052865982055664
            ],
            "type" : "VEC3"
        },
        {
            "bufferView" : 1,
            "componentType" : 5126,
            "count" : 16904,
            "type" : "VEC3"
        },
        {
            "bufferView" : 2,
            "componentType" : 5126,
            "count" : 16904,
            "type" : "VEC2"
        },
        {
            "bufferView" : 3,
            "componentType" : 5123,
            "count" : 25356,
            "type" : "SCALAR"
        }
    ],
    "bufferViews" : [
        {
            "buffer" : 0,
            "byteLength" : 202848,
            "byteOffset" : 0
        },
        {
            "buffer" : 0,
            "byteLength" : 202848,
            "byteOffset" : 202848
        },
        {
            "buffer" : 0,
            "byteLength" : 135232,
            "byteOffset" : 405696
        },
        {
            "buffer" : 0,
            "byteLength" : 50712,
            "byteOffset" : 540928
        }
    ],
    "buffers" : [
        {
            "byteLength" : 591640,
            "uri" : "data:application/octet-stream;base64,"
        }
    ]
}
