{
    "asset" : {
        "generator" : "Khronos glTF Blender I/O v1.7.33",
        "version" : "2.0"
    },
    "scene" : 0,
    "scenes" : [
        {
            "name" : "Scene",
            "nodes" : [
                0,
                1
            ]
        }
    ],
    "nodes" : [
        {
            "mesh" : 0,
            "name" : "leftPath"
        },
        {
            "mesh" : 1,
            "name" : "rightPath"
        }
    ],
    "animations" : [
        {
            "channels" : [
                {
                    "sampler" : 0,
                    "target" : {
                        "node" : 0,
                        "path" : "translation"
                    }
                },
                {
                    "sampler" : 1,
                    "target" : {
                        "node" : 0,
                        "path" : "rotation"
                    }
                },
                {
                    "sampler" : 2,
                    "target" : {
                        "node" : 0,
                        "path" : "scale"
                    }
                }
            ],
            "name" : "Action",
            "samplers" : [
                {
                    "input" : 8,
                    "interpolation" : "LINEAR",
                    "output" : 9
                },
                {
                    "input" : 8,
                    "interpolation" : "LINEAR",
                    "output" : 10
                },
                {
                    "input" : 8,
                    "interpolation" : "LINEAR",
                    "output" : 11
                }
            ]
        },
        {
            "channels" : [
                {
                    "sampler" : 0,
                    "target" : {
                        "node" : 1,
                        "path" : "translation"
                    }
                },
                {
                    "sampler" : 1,
                    "target" : {
                        "node" : 1,
                        "path" : "rotation"
                    }
                },
                {
                    "sampler" : 2,
                    "target" : {
                        "node" : 1,
                        "path" : "scale"
                    }
                }
            ],
            "name" : "Action.001",
            "samplers" : [
                {
                    "input" : 8,
                    "interpolation" : "LINEAR",
                    "output" : 12
                },
                {
                    "input" : 8,
                    "interpolation" : "LINEAR",
                    "output" : 13
                },
                {
                    "input" : 8,
                    "interpolation" : "LINEAR",
                    "output" : 14
                }
            ]
        }
    ],
    "meshes" : [
        {
            "name" : "LeftPathAnimation",
            "primitives" : [
                {
                    "attributes" : {
                        "POSITION" : 0,
                        "NORMAL" : 1,
                        "TEXCOORD_0" : 2
                    },
                    "indices" : 3
                }
            ]
        },
        {
            "name" : "RightPathAnimation",
            "primitives" : [
                {
                    "attributes" : {
                        "POSITION" : 4,
                        "NORMAL" : 5,
                        "TEXCOORD_0" : 6
                    },
                    "indices" : 7
                }
            ]
        }
    ],
    "accessors" : [
        {
            "bufferView" : 0,
            "componentType" : 5126,
            "count" : 2796,
            "max" : [
                0.38973623514175415,
                0.24000000953674316,
                2.0400002002716064
            ],
            "min" : [
                -0.38982972502708435,
                -0.0028853490948677063,
                1.5949796438217163
            ],
            "type" : "VEC3"
        },
        {
            "bufferView" : 1,
            "componentType" : 5126,
            "count" : 2796,
            "type" : "VEC3"
        },
        {
            "bufferView" : 2,
            "componentType" : 5126,
            "count" : 2796,
            "type" : "VEC2"
        },
        {
            "bufferView" : 3,
            "componentType" : 5123,
            "count" : 4164,
            "type" : "SCALAR"
        },
        {
            "bufferView" : 4,
            "componentType" : 5126,
            "count" : 2796,
            "max" : [
                0.3898334503173828,
                0.24000000953674316,
                2.0400002002716064
            ],
            "min" : [
                -0.389729380607605,
                -0.019894054159522057,
                1.592377781867981
            ],
            "type" : "VEC3"
        },
        {
            "bufferView" : 5,
            "componentType" : 5126,
            "count" : 2796,
            "type" : "VEC3"
        },
        {
            "bufferView" : 6,
            "componentType" : 5126,
            "count" : 2796,
            "type" : "VEC2"
        },
        {
            "bufferView" : 7,
            "componentType" : 5123,
            "count" : 4164,
            "type" : "SCALAR"
        },
        {
            "bufferView" : 8,
            "componentType" : 5126,
            "count" : 2,
            "max" : [
                5
            ],
            "min" : [
                0.041666666666666664
            ],
            "type" : "SCALAR"
        },
        {
            "bufferView" : 9,
            "componentType" : 5126,
            "count" : 2,
            "type" : "VEC3"
        },
        {
            "bufferView" : 10,
            "componentType" : 5126,
            "count" : 2,
            "type" : "VEC4"
        },
        {
            "bufferView" : 11,
            "componentType" : 5126,
            "count" : 2,
            "type" : "VEC3"
        },
        {
            "bufferView" : 12,
            "componentType" : 5126,
            "count" : 2,
            "type" : "VEC3"
        },
        {
            "bufferView" : 13,
            "componentType" : 5126,
            "count" : 2,
            "type" : "VEC4"
        },
        {
            "bufferView" : 14,
            "componentType" : 5126,
            "count" : 2,
            "type" : "VEC3"
        }
    ],
    "bufferViews" : [
        {
            "buffer" : 0,
            "byteLength" : 33552,
            "byteOffset" : 0
        },
        {
            "buffer" : 0,
            "byteLength" : 33552,
            "byteOffset" : 33552
        },
        {
            "buffer" : 0,
            "byteLength" : 22368,
            "byteOffset" : 67104
        },
        {
            "buffer" : 0,
            "byteLength" : 8328,
            "byteOffset" : 89472
        },
        {
            "buffer" : 0,
            "byteLength" : 33552,
            "byteOffset" : 97800
        },
        {
            "buffer" : 0,
            "byteLength" : 33552,
            "byteOffset" : 131352
        },
        {
            "buffer" : 0,
            "byteLength" : 22368,
            "byteOffset" : 164904
        },
        {
            "buffer" : 0,
            "byteLength" : 8328,
            "byteOffset" : 187272
        },
        {
            "buffer" : 0,
            "byteLength" : 8,
            "byteOffset" : 195600
        },
        {
            "buffer" : 0,
            "byteLength" : 24,
            "byteOffset" : 195608
        },
        {
            "buffer" : 0,
            "byteLength" : 32,
            "byteOffset" : 195632
        },
        {
            "buffer" : 0,
            "byteLength" : 24,
            "byteOffset" : 195664
        },
        {
            "buffer" : 0,
            "byteLength" : 24,
            "byteOffset" : 195688
        },
        {
            "buffer" : 0,
            "byteLength" : 32,
            "byteOffset" : 195712
        },
        {
            "buffer" : 0,
            "byteLength" : 24,
            "byteOffset" : 195744
        }
    ],
    "buffers" : [
        {
            "byteLength" : 195768,
            "uri" : "data:application/octet-stream;base64,"
        }
    ]
}
