<svg width="24" height="24" viewBox="0 0 24 24" fill="none" xmlns="http://www.w3.org/2000/svg">
<path fill-rule="evenodd" clip-rule="evenodd" d="M12 9.29091L10.6058 7.93532C9.32317 6.68823 7.22099 6.68823 5.93837 7.93532C4.68721 9.15182 4.68721 11.1003 5.93837 12.3168L12 18.2105L18.0616 12.3168C19.3128 11.1003 19.3128 9.15182 18.0616 7.93532C16.779 6.68823 14.6768 6.68823 13.3942 7.93532L12 9.29091ZM12 6.50138C9.94112 4.49954 6.60303 4.49954 4.54416 6.50138C2.48528 8.50322 2.48528 11.7488 4.54416 13.7507L10.6058 19.6444C11.382 20.3992 12.618 20.3992 13.3942 19.6444L19.4558 13.7507C21.5147 11.7488 21.5147 8.50322 19.4558 6.50138C17.397 4.49954 14.0589 4.49954 12 6.50138Z" fill="black"/>
</svg>
