<svg width="24" height="24" viewBox="0 0 24 24" fill="none" xmlns="http://www.w3.org/2000/svg">
<path d="M3 9.00002C3 8.44774 3.44772 8.00002 4 8.00002H5V16H4C3.44772 16 3 15.5523 3 15V9.00002Z" fill="#A3A3A3"/>
<path d="M11.2929 3.70713L7 8.00002V16L11.2929 20.2929C11.9229 20.9229 13 20.4767 13 19.5858V4.41424C13 3.52333 11.9229 3.07716 11.2929 3.70713Z" fill="#A3A3A3"/>
<path fill-rule="evenodd" clip-rule="evenodd" d="M15.0138 5.91757C15.1052 5.3729 15.6208 5.00543 16.1655 5.09681C19.4769 5.65236 22 8.53058 22 12.0001C22 15.4696 19.4769 18.3478 16.1655 18.9033C15.6208 18.9947 15.1052 18.6272 15.0138 18.0826C14.9224 17.5379 15.2899 17.0223 15.8345 16.9309C18.1985 16.5343 20 14.4766 20 12.0001C20 9.52357 18.1985 7.46585 15.8345 7.06925C15.2899 6.97787 14.9224 6.46225 15.0138 5.91757ZM15.1344 9.76691C15.4109 9.28885 16.0227 9.12549 16.5007 9.40203C17.3948 9.91923 18 10.8884 18 12.0001C18 13.1118 17.3948 14.0809 16.5007 14.5981C16.0227 14.8747 15.4109 14.7113 15.1344 14.2332C14.8579 13.7552 15.0212 13.1434 15.4993 12.8669C15.8008 12.6925 16 12.369 16 12.0001C16 11.6312 15.8008 11.3077 15.4993 11.1332C15.0212 10.8567 14.8579 10.245 15.1344 9.76691Z" fill="#A3A3A3"/>
</svg>
